:FULLY-SPECIFIED
:FORCE-ALL-JOINTS-BE-3DOF
:DEGREES
816
root -4.67178 14.6736 -40.4274 28.8544 -75.5684 -19.8421
lfemur -69.4544 19.6465 -22.0153
ltibia 85.4839 -0 0
lfoot -6.85404 9.23999 -0.10465
ltoes -15.8548 0 0
rfemur -33.0856 -8.78286 21.8756
rtibia 73.2199 -0 0
rfoot -32.6012 -26.1881 0.0771576
rtoes -22.1982 0 0
lowerback 18.1735 0.635614 3.99628
upperback 0.305969 1.74629 1.28074
thorax -9.83645 0.651109 -1.32539
lowerneck -2.26077 12.7875 4.99909
upperneck -1.50334 17.005 -8.84446
head 1.19905 8.46318 -3.21212
lclavicle -2.05354e-14 -2.30714e-14 0
lhumerus 100.451 -33.6619 23.9157
lradius 96.0077 -0 0
lwrist 14.3556 0 0
lhand -10.2412 23.6366 -0.0254717
lfingers 7.12502 -0 0
lthumb 15.7491 52.9749 -0.032245
rclavicle -2.05354e-14 -2.30714e-14 0
rhumerus 23.106 38.291 -58.7275
rradius 65.8658 -0 0
rwrist -10.2343 0 0
rhand -11.293 -40.1453 0.0481934
rfingers 7.12502 -0 0
rthumb 14.7216 -69.4228 0.110855
817
root -4.48026 14.6946 -40.4409 27.688 -74.8143 -18.5563
lfemur -69.6605 19.8245 -22.455
ltibia 85.9455 -0 0
lfoot -7.09109 9.38026 -0.0837942
ltoes -15.7884 0 0
rfemur -33.4058 -8.98489 22.2616
rtibia 73.0126 -0 0
rfoot -32.7391 -26.4556 0.0618949
rtoes -22.1377 0 0
lowerback 18.2277 0.581292 4.14384
upperback 0.312015 1.70476 1.25071
thorax -9.85245 0.621831 -1.43272
lowerneck -2.24127 12.8628 5.05539
upperneck -1.54228 17.1044 -8.97307
head 1.20601 8.51356 -3.25828
lclavicle -2.05354e-14 -2.30714e-14 0
lhumerus 101.908 -34.0154 21.9989
lradius 97.7501 -0 0
lwrist 15.5488 0 0
lhand -9.92231 23.5417 -0.0162767
lfingers 7.12502 -0 0
lthumb 16.0567 52.8658 -0.0216315
rclavicle -2.05354e-14 -2.30714e-14 0
rhumerus 24.761 38.624 -58.148
rradius 65.5046 -0 0
rwrist -9.74149 0 0
rhand -11.8404 -40.1724 0.0366348
rfingers 7.12502 -0 0
rthumb 14.1976 -69.5242 0.0869337
818
root -4.28375 14.7157 -40.4493 26.7379 -74.1062 -17.4932
lfemur -69.8602 20.0005 -22.864
ltibia 86.3848 -0 0
lfoot -7.32245 9.50105 -0.0627055
ltoes -15.7144 0 0
rfemur -33.6798 -9.18294 22.6277
rtibia 72.783 -0 0
rfoot -32.8653 -26.7155 0.0463939
rtoes -22.0871 0 0
lowerback 18.2742 0.529038 4.29079
upperback 0.316037 1.66589 1.22561
thorax -9.86655 0.594008 -1.53483
lowerneck -2.2238 12.9289 5.10664
upperneck -1.57488 17.1918 -9.08892
head 1.21332 8.55782 -3.30005
lclavicle -2.05354e-14 -2.30714e-14 0
lhumerus 103.267 -34.312 20.2247
lradius 99.362 -0 0
lwrist 16.6227 0 0
lhand -9.6334 23.4597 -0.00887748
lfingers 7.12502 -0 0
lthumb 16.3354 52.7705 -0.0128287
rclavicle -2.05354e-14 -2.30714e-14 0
rhumerus 26.2778 38.9453 -57.6163
rradius 65.196 -0 0
rwrist -9.30912 0 0
rhand -12.3603 -40.192 0.0258614
rfingers 7.12502 -0 0
rthumb 13.6999 -69.6147 0.0635796
819
root -4.08199 14.7368 -40.4524 25.9722 -73.4498 -16.6215
lfemur -70.0527 20.1743 -23.2401
ltibia 86.8004 -0 0
lfoot -7.54747 9.60145 -0.0415784
ltoes -15.6325 0 0
rfemur -33.9052 -9.37713 22.9722
rtibia 72.5307 -0 0
rfoot -32.9794 -26.967 0.0308067
rtoes -22.0466 0 0
lowerback 18.3127 0.479069 4.43682
upperback 0.317948 1.62988 1.20567
thorax -9.87867 0.567756 -1.63134
lowerneck -2.20849 12.9854 5.15254
upperneck -1.60075 17.2666 -9.19128
head 1.22101 8.59566 -3.33718
lclavicle -2.05354e-14 -2.30714e-14 0
lhumerus 104.516 -34.5593 18.6071
lradius 100.836 -0 0
lwrist 17.5709 0 0
lhand -9.37606 23.3912 -0.00353519
lfingers 7.12502 -0 0
lthumb 16.5836 52.6899 -0.0061147
rclavicle -2.05354e-14 -2.30714e-14 0
rhumerus 27.6462 39.2576 -57.1382
rradius 64.9424 -0 0
rwrist -8.94018 0 0
rhand -12.8508 -40.2035 0.0160512
rfingers 7.12502 -0 0
rthumb 13.2305 -69.6937 0.0411021
820
root -3.87469 14.7579 -40.4498 25.3664 -72.85 -15.9171
lfemur -70.237 20.3458 -23.5814
ltibia 87.1904 -0 0
lfoot -7.76547 9.68053 -0.0206103
ltoes -15.5428 0 0
rfemur -34.0795 -9.56757 23.2931
rtibia 72.2553 -0 0
rfoot -33.0807 -27.2094 0.0152893
rtoes -22.0167 0 0
lowerback 18.343 0.431602 4.58163
upperback 0.317663 1.59687 1.19111
thorax -9.88871 0.543192 -1.72185
lowerneck -2.19547 13.0317 5.19279
upperneck -1.61954 17.3282 -9.27941
head 1.22907 8.62676 -3.36942
lclavicle -2.05354e-14 -2.30714e-14 0
lhumerus 105.643 -34.7649 17.1596
lradius 102.163 -0 0
lwrist 18.3872 0 0
lhand -9.15194 23.3369 -0.000498484
lfingers 7.12502 -0 0
lthumb 16.7998 52.6244 -0.00175527
rclavicle -2.05354e-14 -2.30714e-14 0
rhumerus 28.856 39.5636 -56.7192
rradius 64.7462 -0 0
rwrist -8.63765 0 0
rhand -13.3098 -40.2069 0.00737618
rfingers 7.12502 -0 0
rthumb 12.7914 -69.7605 0.0198083
821
root -3.66157 14.7792 -40.4415 384.902 -72.3114 344.638
lfemur -70.4123 20.5148 -23.8857
ltibia 87.5532 0 0
lfoot -7.97581 9.73737 0
ltoes -15.4451 0 0
rfemur -34.2003 -9.75434 23.5888
rtibia 71.9567 0 0
rfoot -33.1684 -27.4419 0
rtoes -21.998 0 0
lowerback 18.3645 0.386855 4.72491
upperback 0.315096 1.56706 1.18217
thorax -9.8966 0.520432 -1.80598
lowerneck -2.18488 13.0674 5.22711
upperneck -1.63087 17.3761 -9.35259
head 1.23752 8.65083 -3.39655
lclavicle 4.22417e-15 7.85199e-15 0
lhumerus 106.639 -34.9364 15.8949
lradius 103.336 0 0
lwrist 19.065 0 0
lhand -8.96267 23.2973 0
lfingers 7.12502 0 0
lthumb 16.9824 52.5749 0
rclavicle 4.22417e-15 7.85199e-15 0
rhumerus 29.8969 39.8657 -56.3648
rradius 64.61 0 0
rwrist -8.40454 0 0
rhand -13.7352 -40.2017 0
rfingers 7.12502 0 0
rthumb 12.3844 -69.8148 0
822
root -3.4544 14.7998 -40.4286 23.7877 -71.4153 -14.299
lfemur -70.1375 20.6378 -23.7555
ltibia 87.2594 -0 0
lfoot -7.85817 9.81845 0.00203085
ltoes -15.4387 0 0
rfemur -34.2112 -9.88237 23.6328
rtibia 71.8774 -0 0
rfoot -33.1212 -27.5627 -0.00827047
rtoes -21.9239 0 0
lowerback 18.374 0.383526 4.72477
upperback 0.311812 1.56247 1.15776
thorax -9.90398 0.51742 -1.83168
lowerneck -2.21884 13.0741 5.21572
upperneck -1.57446 17.388 -9.34677
head 1.26099 8.65492 -3.38988
lclavicle 4.22417e-15 7.85199e-15 0
lhumerus 105.91 -35.3515 15.3088
lradius 103.621 -0 0
lwrist 19.4361 0 0
lhand -9.15332 23.3986 -0.0391794
lfingers 7.12502 -0 0
lthumb 16.7984 52.6712 -0.0373183
rclavicle 4.22417e-15 7.85199e-15 0
rhumerus 29.5294 40.1138 -56.6232
rradius 64.9053 -0 0
rwrist -8.69078 0 0
rhand -13.9682 -40.0278 -0.00167673
rfingers 7.12502 -0 0
rthumb 12.1613 -69.6732 -0.0085341
823
root -3.26466 14.8189 -40.4126 22.7375 -70.4792 -13.3182
lfemur -69.8092 20.7665 -23.5589
ltibia 86.8861 -0 0
lfoot -7.70878 9.88723 0.00261235
ltoes -15.4285 0 0
rfemur -34.1683 -10.0159 23.6454
rtibia 71.7801 -0 0
rfoot -33.0517 -27.6796 -0.0161765
rtoes -21.8512 0 0
lowerback 18.3761 0.384348 4.71671
upperback 0.306134 1.56154 1.13571
thorax -9.91003 0.516707 -1.85107
lowerneck -2.25992 13.0703 5.19586
upperneck -1.50334 17.3868 -9.3232
head 1.28749 8.65203 -3.37644
lclavicle 4.22417e-15 7.85199e-15 0
lhumerus 104.923 -35.7996 14.9045
lradius 103.75 -0 0
lwrist 19.6985 0 0
lhand -9.40916 23.5284 -0.0853905
lfingers 7.12502 -0 0
lthumb 16.5515 52.7969 -0.0816169
rclavicle 4.22417e-15 7.85199e-15 0
rhumerus 28.9015 40.3761 -57.0025
rradius 65.2998 -0 0
rwrist -9.08797 0 0
rhand -14.1815 -39.824 -0.00131453
rfingers 7.12502 -0 0
rthumb 11.9572 -69.4995 -0.0148588
